<svg xmlns="http://www.w3.org/2000/svg" viewBox="0 0 1200 630" font-family="PingFang TC,Noto Sans TC,Noto Sans CJK TC,Microsoft JhengHei,sans-serif">
<defs><radialGradient id="bg" cx=".78" cy=".22" r="1"><stop offset="0" stop-color="#5b3a8f"/><stop offset=".45" stop-color="#2b1a4a"/><stop offset="1" stop-color="#1a1030"/></radialGradient>
<radialGradient id="gl"><stop offset=".55" stop-color="#ffc86e" stop-opacity=".45"/><stop offset="1" stop-color="#ffc86e" stop-opacity="0"/></radialGradient></defs>
<rect width="1200" height="630" fill="url(#bg)"/>
<g fill="#fff" opacity=".8"><circle cx="623" cy="63" r="3"/><circle cx="763" cy="133" r="3"/><circle cx="543" cy="203" r="3" opacity=".6"/><circle cx="903" cy="43" r="3"/><circle cx="1123" cy="303" r="3" opacity=".6"/></g>
<circle cx="995" cy="145" r="150" fill="url(#gl)"/><circle cx="995" cy="145" r="85" fill="#ffd98a"/>
<rect x="80" y="70" width="190" height="52" rx="26" fill="#ff7a1a"/>
<text x="175" y="106" fill="#fff" font-size="28" font-weight="700" text-anchor="middle" letter-spacing="2">動腦任務卡</text>
<g font-size="96" font-weight="900" letter-spacing="4"><text x="86" y="252" fill="#ff7a1a" opacity=".25">萬聖節</text><text x="80" y="246" fill="#fff">萬聖節</text>
<text x="86" y="358" fill="#ff7a1a" opacity=".25">解謎任務</text><text x="80" y="352" fill="#fff">解謎任務</text></g>
<text x="80" y="420" fill="#ffd98a" font-size="40" font-weight="700">單字密碼 × 小偵探推理卡</text>
<text x="80" y="480" fill="#c9b6f0" font-size="30" font-family="Menlo,Consolas,monospace" letter-spacing="3">8-1-16-16-25 · ???</text>
<g font-size="28" font-weight="700"><rect x="80" y="514" width="216" height="60" rx="14" fill="#ff7a1a"/><text x="188" y="554" fill="#fff" text-anchor="middle">低年級・注音</text>
<rect x="311" y="515" width="130" height="58" rx="14" fill="#fff" fill-opacity=".12" stroke="#fff" stroke-opacity=".35" stroke-width="2"/><text x="376" y="554" fill="#fff" text-anchor="middle">中年級</text>
<rect x="456" y="515" width="130" height="58" rx="14" fill="#fff" fill-opacity=".12" stroke="#fff" stroke-opacity=".35" stroke-width="2"/><text x="521" y="554" fill="#fff" text-anchor="middle">高年級</text></g>
<g transform="translate(750,260)"><rect x="178" y="18" width="24" height="46" rx="8" fill="#4a7a2c"/><ellipse cx="120" cy="200" rx="95" ry="115" fill="#e8640f"/><ellipse cx="260" cy="200" rx="95" ry="115" fill="#e8640f"/><ellipse cx="190" cy="200" rx="105" ry="125" fill="#ff7a1a"/><ellipse cx="190" cy="200" rx="40" ry="122" fill="#ff8a33"/><circle cx="135" cy="170" r="30" fill="#2b1a4a"/><circle cx="245" cy="170" r="38" fill="#ffd98a" stroke="#2b1a4a" stroke-width="10"/><circle cx="245" cy="170" r="14" fill="#2b1a4a"/><line x1="272" y1="198" x2="310" y2="236" stroke="#2b1a4a" stroke-width="14" stroke-linecap="round"/><path d="M110 250 Q190 300 270 250 L250 262 L230 248 L210 266 L190 250 L170 266 L150 248 L130 262 Z" fill="#2b1a4a"/></g>
</svg>
