<svg viewBox="0 0 420 250" xmlns="http://www.w3.org/2000/svg" style="width:100%;display:block">
<defs><linearGradient id="g2" x1="0" y1="0" x2="1" y2="1">
<stop offset="0" stop-color="#0a7ea4"/><stop offset="0.55" stop-color="#16a085"/><stop offset="1" stop-color="#178a55"/></linearGradient>
<linearGradient id="ph" x1="0" y1="0" x2="1" y2="0">
<stop offset="0" stop-color="#e3392f"/><stop offset="0.35" stop-color="#e8a000"/><stop offset="0.5" stop-color="#2fae5b"/><stop offset="0.7" stop-color="#0a7ea4"/><stop offset="1" stop-color="#6c4ab6"/></linearGradient></defs>
<rect width="420" height="250" rx="18" fill="url(#g2)"/>
<line x1="78" y1="64" x2="186" y2="64" stroke="#fff" stroke-width="4" stroke-linecap="round"/>
<path d="M92,64 L92,150 Q92,176 118,176 L146,176 Q172,176 172,150 L172,64" fill="none" stroke="#ffffff" stroke-width="4"/>
<path d="M96,116 L96,150 Q96,172 118,172 L146,172 Q168,172 168,150 L168,116 Z" fill="#dff4ff" opacity="0.85"/>
<circle cx="118" cy="140" r="5" fill="#fff" opacity="0.8"/><circle cx="140" cy="128" r="4" fill="#fff" opacity="0.8"/><circle cx="128" cy="152" r="3.5" fill="#fff" opacity="0.8"/>
<rect x="232" y="150" width="162" height="20" rx="5" fill="url(#ph)"/>
<text x="232" y="186" font-size="12" fill="#eafff5" font-family="sans-serif">0</text>
<text x="307" y="186" text-anchor="middle" font-size="12" fill="#eafff5" font-family="sans-serif">7</text>
<text x="394" y="186" text-anchor="end" font-size="12" fill="#eafff5" font-family="sans-serif">14</text>
<text x="313" y="142" text-anchor="middle" font-size="12.5" fill="#eafff5" font-family="sans-serif">pH 酸鹼</text>
<rect x="250" y="26" width="146" height="46" rx="12" fill="#e6a800"/>
<text x="323" y="58" text-anchor="middle" font-size="27" font-weight="800" fill="#3a2c00" font-family="sans-serif">第二冊</text>
<text x="210" y="210" text-anchor="middle" font-size="24" font-weight="800" fill="#ffffff" font-family="sans-serif">溶液與濃度・溶解度・酸鹼</text>
<text x="210" y="233" text-anchor="middle" font-size="13.5" fill="#dffaee" font-family="sans-serif">分散系・濃度計算・溶解度・pH 中和</text>
</svg>