<svg viewBox="0 0 420 250" xmlns="http://www.w3.org/2000/svg" style="width:100%;display:block">
<defs><linearGradient id="g4" x1="0" y1="0" x2="1" y2="1">
<stop offset="0" stop-color="#0f2744"/><stop offset="0.6" stop-color="#1e4080"/><stop offset="1" stop-color="#6c4ab6"/></linearGradient></defs>
<rect width="420" height="250" rx="18" fill="url(#g4)"/>
<circle cx="120" cy="118" r="66" fill="#ffffff" opacity="0.10"/>
<circle cx="120" cy="118" r="66" fill="none" stroke="#bfe6c8" stroke-width="3"/>
<circle cx="120" cy="118" r="27" fill="#6c4ab6" opacity="0.9"/>
<circle cx="120" cy="118" r="27" fill="none" stroke="#fff" stroke-width="1.5"/>
<circle cx="111" cy="111" r="7" fill="#e8a000"/>
<ellipse cx="162" cy="92" rx="19" ry="9" fill="#0a7ea4" opacity="0.85" transform="rotate(-25 162 92)"/>
<ellipse cx="80" cy="150" rx="16" ry="8" fill="#15803d" opacity="0.85" transform="rotate(20 80 150)"/>
<circle cx="150" cy="158" r="5" fill="#e8a000"/><circle cx="92" cy="92" r="4" fill="#bfe6c8"/>
<polyline points="322.0,86.0 330.5,89.9 336.7,93.8 339.0,97.8 336.7,101.7 330.5,105.6 322.0,109.5 313.5,113.4 307.3,117.3 305.0,121.2 307.3,125.2 313.5,129.1 322.0,133.0 330.5,136.9 336.7,140.8 339.0,144.8 336.7,148.7 330.5,152.6 322.0,156.5 313.5,160.4 307.3,164.3 305.0,168.2 307.3,172.2 313.5,176.1 322.0,180.0" fill="none" stroke="#eaf2ff" stroke-width="3"/>
<polyline points="322.0,86.0 313.5,89.9 307.3,93.8 305.0,97.8 307.3,101.7 313.5,105.6 322.0,109.5 330.5,113.4 336.7,117.3 339.0,121.2 336.7,125.2 330.5,129.1 322.0,133.0 313.5,136.9 307.3,140.8 305.0,144.8 307.3,148.7 313.5,152.6 322.0,156.5 330.5,160.4 336.7,164.3 339.0,168.2 336.7,172.2 330.5,176.1 322.0,180.0" fill="none" stroke="#cfe0ff" stroke-width="3"/>
<line x1="322.0" y1="86.0" x2="322.0" y2="86.0" stroke="#e8a000" stroke-width="2.2"/><line x1="339.0" y1="97.8" x2="305.0" y2="97.8" stroke="#e8a000" stroke-width="2.2"/><line x1="322.0" y1="109.5" x2="322.0" y2="109.5" stroke="#e8a000" stroke-width="2.2"/><line x1="305.0" y1="121.2" x2="339.0" y2="121.2" stroke="#e8a000" stroke-width="2.2"/><line x1="322.0" y1="133.0" x2="322.0" y2="133.0" stroke="#e8a000" stroke-width="2.2"/><line x1="339.0" y1="144.8" x2="305.0" y2="144.8" stroke="#e8a000" stroke-width="2.2"/><line x1="322.0" y1="156.5" x2="322.0" y2="156.5" stroke="#e8a000" stroke-width="2.2"/><line x1="305.0" y1="168.2" x2="339.0" y2="168.2" stroke="#e8a000" stroke-width="2.2"/><line x1="322.0" y1="180.0" x2="322.0" y2="180.0" stroke="#e8a000" stroke-width="2.2"/>
<rect x="250" y="26" width="146" height="46" rx="12" fill="#e8a000"/>
<text x="323" y="58" text-anchor="middle" font-size="27" font-weight="800" fill="#3a2c00" font-family="sans-serif">第四冊</text>
<text x="210" y="208" text-anchor="middle" font-size="25" font-weight="800" fill="#ffffff" font-family="sans-serif">細胞學與生命的化學</text>
<text x="210" y="232" text-anchor="middle" font-size="13.5" fill="#cfe0ff" font-family="sans-serif">細胞構造・物質運輸・酵素・細胞分化</text>
</svg>